<?xml version="1.0" encoding="UTF-8"?>
<svg width="114px" height="89px" viewBox="0 0 114 89" version="1.1" xmlns="http://www.w3.org/2000/svg" xmlns:xlink="http://www.w3.org/1999/xlink">
    <!-- Generator: Sketch 53 (72520) - https://sketchapp.com -->
    <title>principle-3</title>
    <desc>Created with Sketch.</desc>
    <g id="Page-1" stroke="none" stroke-width="1" fill="none" fill-rule="evenodd">
        <g id="Homepage" transform="translate(-126.000000, -3862.000000)" fill="#730FDD">
            <g id="principle-3" transform="translate(126.000000, 3862.000000)">
                <g id="Group-18" opacity="0.5" fill-rule="nonzero">
                    <circle id="Oval" opacity="0.149999991" cx="34.527972" cy="34.527972" r="34.527972"></circle>
                    <circle id="Oval-Copy-37" opacity="0.149999991" cx="78.527972" cy="53.527972" r="34.527972"></circle>
                </g>
                <g id="noun_analytics_1313241" transform="translate(27.000000, 18.000000)">
                    <g id="Group">
                        <path d="M53.145752,47.6826429 L6.854248,47.6826429 C3.07495112,47.6826429 0,44.6076918 0,40.8283949 L0,7.936548 C0,4.1572505 3.07495113,1.08229938 6.854248,1.08229938 L53.1457519,1.08229938 C56.9250489,1.08229937 60,4.1572505 60,7.936548 L60,40.8283938 C60,44.6076918 56.9250489,47.6826429 53.145752,47.6826429 Z M6.854248,3.58229938 C4.453125,3.58229938 2.5,5.53542438 2.5,7.936548 L2.5,40.8283937 C2.5,43.2295167 4.453125,45.1826417 6.854248,45.1826417 L53.1457519,45.1826417 C55.546875,45.1826429 57.5,43.2295179 57.5,40.8283949 L57.5,7.936548 C57.5,5.53542438 55.546875,3.58229938 53.145752,3.58229938 L6.854248,3.58229938 Z" id="Shape" fill-rule="nonzero"></path>
                        <path d="M39.4274903,56.4155531 C38.8928223,56.4155531 38.3984375,56.0713149 38.2336426,55.5342055 L35.8105469,47.682643 L24.1894531,47.682643 L21.7663574,55.5342055 C21.5637206,56.1933853 20.8642578,56.5693618 20.2038574,56.3594009 C19.5446776,56.1567641 19.1748046,55.4573013 19.378662,54.7969009 L22.0727537,46.0639908 C22.2338866,45.5403091 22.7185057,45.1826431 23.2666014,45.1826431 L36.7333983,45.1826431 C37.281494,45.1826431 37.7661131,45.5403091 37.9272459,46.0639908 L40.6213376,54.7969009 C40.825195,55.4573013 40.455322,56.1567641 39.7961423,56.3594009 C39.6728516,56.3984633 39.5495605,56.4155531 39.4274903,56.4155531 Z" id="Path"></path>
                        <path d="M42.5,56.4155531 L17.5,56.4155531 C16.809082,56.4155531 16.25,55.8564711 16.25,55.1655531 C16.25,54.4746351 16.809082,53.9155531 17.5,53.9155531 L42.5,53.9155531 C43.190918,53.9155531 43.75,54.4746351 43.75,55.1655531 C43.75,55.8564711 43.190918,56.4155531 42.5,56.4155531 Z" id="Path"></path>
                        <path d="M58.75,36.8989515 L1.25,36.8989515 C0.559082,36.8989515 0,36.3398695 0,35.6489491 C0,34.9580311 0.559082,34.3989491 1.25,34.3989491 L58.75,34.3989491 C59.440918,34.3989491 60,34.9580311 60,35.6489491 C60,36.3398695 59.440918,36.8989515 58.75,36.8989515 Z" id="Path"></path>
                        <path d="M51.6601562,41.691432 C51.3342285,41.691432 51.0217285,41.5534925 50.7849121,41.3166761 C50.546875,41.0920667 50.4101562,40.7795667 50.4101562,40.441432 C50.4101562,40.2790785 50.4467774,40.116725 50.5090333,39.9665785 C50.5725099,39.804225 50.6591798,39.6662855 50.7849121,39.5539809 C51.2475586,39.0913344 52.084961,39.0913344 52.5476075,39.5539809 C52.6599122,39.6662856 52.7600099,39.804225 52.8222657,39.9665785 C52.8845216,40.116725 52.9223634,40.2790785 52.9223634,40.441432 C52.9223634,40.7795667 52.7844239,41.0920667 52.5476075,41.3166761 C52.3095704,41.5534925 51.9970704,41.691432 51.6601562,41.691432 Z" id="Path"></path>
                        <g transform="translate(6.250000, 13.750000)" id="Path">
                            <path d="M1.82250975,16.7939686 C1.13159175,16.7939686 0.57250975,16.2348866 0.57250975,15.5439686 L0.57250975,5.07521862 C0.57250975,4.38430063 1.13159175,3.82521863 1.82250975,3.82521863 C2.51342775,3.82521863 3.07250975,4.38430063 3.07250975,5.07521862 L3.07250975,15.5439686 C3.07250975,16.2348866 2.51342775,16.7939686 1.82250975,16.7939686 Z"></path>
                            <path d="M8.07250975,16.7939686 C7.38159175,16.7939686 6.82250975,16.2348866 6.82250975,15.5439686 L6.82250975,8.82521862 C6.82250975,8.13430063 7.38159175,7.57521862 8.07250975,7.57521862 C8.76342775,7.57521862 9.32250975,8.13430063 9.32250975,8.82521862 L9.32250975,15.5439686 C9.32250975,16.2348866 8.76342775,16.7939686 8.07250975,16.7939686 Z"></path>
                            <path d="M14.3225098,16.7939686 C13.6315918,16.7939686 13.0725098,16.2348866 13.0725098,15.5439686 L13.0725098,1.32521987 C13.0725098,0.634301875 13.6315918,0.075219875 14.3225098,0.075219875 C15.0134277,0.075219875 15.5725098,0.634301875 15.5725098,1.32521987 L15.5725098,15.5439686 C15.5725098,16.2348866 15.0134277,16.7939686 14.3225098,16.7939686 Z"></path>
                            <path d="M20.5725097,16.7939686 C19.8815917,16.7939686 19.3225097,16.2348866 19.3225097,15.5439686 L19.3225097,3.82521863 C19.3225097,3.13430063 19.8815917,2.57521863 20.5725097,2.57521863 C21.2634277,2.57521863 21.8225097,3.13430063 21.8225097,3.82521863 L21.8225097,15.5439686 C21.8225097,16.2348866 21.2634277,16.7939686 20.5725097,16.7939686 Z"></path>
                        </g>
                        <g transform="translate(31.250000, 10.000000)">
                            <g fill-rule="nonzero" id="Shape">
                                <path d="M10.201416,11.3252186 C9.88037112,11.3252186 9.56054688,11.2019276 9.31762687,10.9590076 L3.57788075,5.21926275 C3.0895995,4.7309815 3.0895995,3.93996587 3.57788075,3.45168462 C5.34545888,1.68166512 7.69775375,0.707544 10.2014159,0.707544 C12.8466795,0.707544 15.3845214,1.84279787 17.1655273,3.82277837 C17.3864745,4.07058112 17.5012206,4.3940675 17.4841307,4.72609875 C17.4658203,5.05690925 17.3168944,5.36818862 17.0703124,5.58913587 L11.0363769,11.0053945 C10.7983399,11.2190175 10.4992676,11.3252186 10.201416,11.3252186 Z M6.30859375,4.4148195 L10.2478028,8.35402725 L14.3847656,4.6406495 C12.0812989,2.86330575 8.66943362,2.7864015 6.30859375,4.4148195 Z"></path>
                                <path d="M10.201416,19.4441151 C5.03662112,19.4441151 0.83374025,15.2412343 0.83374025,10.0752186 C0.83374025,7.5715565 1.80786137,5.21926275 3.57788087,3.45168462 C4.06616212,2.96340337 4.85717775,2.96340337 5.345459,3.45168462 L10.2478027,8.35402713 L15.4003906,3.72878412 C15.913086,3.26735838 16.7016601,3.3076415 17.1655274,3.82277825 C18.7158204,5.54763175 19.5690919,7.7680895 19.5690919,10.0752185 C19.5690918,15.2412343 15.366211,19.4441151 10.201416,19.4441151 Z M4.54101563,6.18239763 C3.7561035,7.318871 3.33374025,8.66408587 3.33374025,10.0752188 C3.33374025,13.8630605 6.414795,16.9441152 10.201416,16.9441152 C13.988037,16.9441152 17.0690918,13.8630605 17.0690918,10.0752188 C17.0690918,8.8056875 16.7150879,7.57155663 16.0559081,6.49977925 L11.0363769,11.0053945 C10.5407714,11.4497305 9.78637688,11.4277577 9.31762688,10.9590077 L4.54101563,6.18239763 Z"></path>
                            </g>
                            <path d="M10.201416,19.4441151 C9.510498,19.4441151 8.951416,18.8850331 8.951416,18.1941151 L8.951416,10.0752186 C8.951416,9.38430063 9.510498,8.82521862 10.201416,8.82521862 C10.892334,8.82521862 11.451416,9.38430063 11.451416,10.0752186 L11.451416,18.1941151 C11.451416,18.8850331 10.892334,19.4441151 10.201416,19.4441151 Z" id="Path"></path>
                        </g>
                    </g>
                </g>
            </g>
        </g>
    </g>
</svg>