<?xml version="1.0" encoding="UTF-8"?>
<svg width="114px" height="89px" viewBox="0 0 114 89" version="1.1" xmlns="http://www.w3.org/2000/svg" xmlns:xlink="http://www.w3.org/1999/xlink">
    <!-- Generator: Sketch 53.2 (72643) - https://sketchapp.com -->
    <title>principle-2</title>
    <desc>Created with Sketch.</desc>
    <g id="Page-1" stroke="none" stroke-width="1" fill="none" fill-rule="evenodd">
        <g id="Homepage" transform="translate(-126.000000, -3689.000000)" fill="#0F61DD" fill-rule="nonzero">
            <g id="principle-2" transform="translate(126.000000, 3689.000000)">
                <g id="Group-18" opacity="0.5">
                    <circle id="Oval" opacity="0.149999991" cx="34.527972" cy="34.527972" r="34.527972"></circle>
                    <circle id="Oval-Copy-37" opacity="0.149999991" cx="78.527972" cy="53.527972" r="34.527972"></circle>
                </g>
                <g id="rocket-ship" transform="translate(29.000000, 17.000000)">
                    <path d="M55.659063,1.1360806 C55.5995365,0.654649874 55.2203728,0.275486146 54.7390831,0.215959698 C50.4018338,-0.320483627 45.9262065,0.147123426 41.7946196,1.56771788 C37.6626096,2.9884534 33.8452997,5.37247355 30.7557078,8.46206549 L23.7052091,15.5125642 L13.5280202,16.8251083 C13.2959798,16.8550126 13.0805844,16.9609471 12.9151234,17.126267 L3.10271033,26.9386801 C2.82496725,27.2164232 2.72396977,27.6253501 2.84062469,28.0005642 C2.95699748,28.3757783 3.27197985,28.6554962 3.65819647,28.7270126 L11.0774207,30.101199 L12.5352544,31.5590327 L9.43155668,33.239738 C9.13787406,33.3987103 8.93644332,33.6871738 8.88834257,34.0176725 C8.84024181,34.3481713 8.95097229,34.6819144 9.18710327,34.9180453 L20.9566952,46.6876373 C21.1565743,46.8875164 21.4262771,46.9975416 21.7048665,46.9975416 C21.7553652,46.9975416 21.8064282,46.9938741 21.8572091,46.986539 C22.1877078,46.9384383 22.4761713,46.7370076 22.6351436,46.4433249 L24.3159899,43.3396272 L25.7738237,44.797461 L27.1480101,52.2166851 C27.2196675,52.6030428 27.4992443,52.9178841 27.8744584,53.034398 C27.9775718,53.0664181 28.0832242,53.0819345 28.1881713,53.0819345 C28.4646448,53.0819345 28.7349118,52.973461 28.9364836,52.7720302 L38.7488967,42.9596171 C38.9142166,42.7942972 39.0201511,42.5787607 39.0500554,42.3468615 L40.3627406,32.1695315 L47.4132393,25.1188917 C50.5028312,22.0292997 52.8868514,18.212131 54.3075869,14.0801209 C55.7280403,9.94853401 56.1953652,5.47234257 55.659063,1.1360806 Z M11.2386499,27.9795466 L6.02105793,27.0131587 L14.1562922,18.8776423 L21.2560202,17.9620353 L11.2386499,27.9795466 Z M21.4499748,44.188937 L11.6860856,34.4251889 L14.0960605,33.1201209 L22.7549018,41.7791033 L21.4499748,44.188937 Z M36.9973804,41.7187305 L28.862005,49.8541058 L27.8954761,44.6366549 L37.9129874,34.6191436 L36.9973804,41.7187305 Z M45.9167557,23.6231134 L26.7540353,42.7858338 L13.0891889,29.1209874 L32.2519093,9.95812594 C35.0361108,7.17378338 38.4587406,5.01037783 42.1664484,3.68245844 C42.6453401,6.14984383 43.8518086,8.43879093 45.6440907,10.230932 C47.4362317,12.0232141 49.7250378,13.2296826 52.1925642,13.7087154 C50.8645038,17.4161411 48.7009572,20.8387708 45.9167557,23.6231134 Z M52.8294408,11.6759295 C50.684937,11.3101662 48.6900957,10.2846751 47.1401511,8.73487154 C45.5902065,7.18506801 44.5648564,5.19008564 44.1990932,3.04558186 C47.2658338,2.21912343 50.4873149,1.93728967 53.6485642,2.22645844 C53.9378741,5.38770781 53.6558992,8.60918892 52.8294408,11.6759295 Z" id="Shape"></path>
                    <path d="M31.2196474,15.5788615 C28.7172796,18.0813703 28.7172796,22.1530076 31.2196474,24.6555164 C32.4709723,25.9068413 34.1142972,26.5322922 35.7580453,26.5322922 C37.4012292,26.5322922 39.0452594,25.9065592 40.2963023,24.6555164 L40.2964433,24.6555164 C42.7988111,22.1531486 42.7988111,18.0813703 40.2963023,15.5788615 C37.7937935,13.0764937 33.7220151,13.0766348 31.2196474,15.5788615 Z M38.8002418,23.1593149 C37.1224987,24.8369169 34.3930277,24.8366348 32.7158489,23.1593149 C31.0382469,21.4818539 31.0382469,18.7523829 32.7158489,17.0749219 C33.5544383,16.2361914 34.6562418,15.8169673 35.7579043,15.8169673 C36.8597078,15.8169673 37.9613703,16.2363325 38.7999597,17.0749219 C40.4775617,18.7523829 40.4775617,21.4818539 38.8002418,23.1593149 Z" id="Shape"></path>
                    <path d="M13.8751637,42.199597 C13.461864,41.7864383 12.7921209,41.7864383 12.3789622,42.199597 L3.30216625,51.2762519 C2.88900756,51.6894106 2.88900756,52.3592947 3.30216625,52.7723123 C3.50881612,52.9788212 3.77964736,53.0822166 4.05033753,53.0822166 C4.32102771,53.0822166 4.59185894,52.9789622 4.79850882,52.7723123 L13.8751637,43.6956574 C14.2881814,43.2826398 14.2881814,42.6127557 13.8751637,42.199597 Z" id="Path"></path>
                    <path d="M15.2713552,45.092131 L11.1819446,49.1815416 C10.7687859,49.5947003 10.7687859,50.2645844 11.1819446,50.677602 C11.3885945,50.8841108 11.6594257,50.9875063 11.9301159,50.9875063 C12.200806,50.9875063 12.4716373,50.8842519 12.6782872,50.677602 L16.7676977,46.5881914 C17.1808564,46.1750327 17.1808564,45.5051486 16.7676977,45.092131 C16.354398,44.6789723 15.6846549,44.6789723 15.2713552,45.092131 Z" id="Path"></path>
                    <path d="M9.75034761,51.0515466 C9.30770781,51.0515466 8.90371788,51.3370479 8.75419647,51.7530277 C8.60213602,52.1759194 8.74361713,52.6615819 9.09499244,52.9401713 C9.454267,53.2251083 9.97886146,53.2406247 10.3543577,52.9775516 C10.7549622,52.6968463 10.917461,52.158005 10.7266096,51.7046448 C10.5696121,51.3132091 10.170136,51.0515466 9.75034761,51.0515466 Z" id="Path"></path>
                    <path d="M10.7266096,51.7046448 C10.7534106,51.768262 10.7012191,51.6411688 10.7266096,51.7046448 L10.7266096,51.7046448 Z" id="Path"></path>
                    <path d="M6.75808564,53.6055416 L6.19498237,54.1686448 C5.78168262,54.5818035 5.78168262,55.2516877 6.19484131,55.6648463 C6.40149118,55.8713552 6.67218136,55.9747506 6.94301259,55.9747506 C7.21370277,55.9747506 7.48453401,55.8714962 7.69104282,55.6649874 L8.2541461,55.1018841 C8.66744584,54.6887254 8.66744584,54.0188413 8.25428715,53.6058237 C7.84112846,53.192806 7.17110327,53.1923829 6.75808564,53.6055416 Z" id="Path"></path>
                    <path d="M5.99524433,44.2941662 C5.58194458,43.8810076 4.91220151,43.8810076 4.49904282,44.2941662 L0.409632242,48.3835768 C-0.00352644836,48.7967355 -0.00352644836,49.4666196 0.409632242,49.8796373 C0.616282116,50.0861461 0.88711335,50.1895416 1.15780353,50.1895416 C1.4284937,50.1895416 1.69932494,50.0862872 1.90597481,49.8796373 L5.99538539,45.7902267 C6.40840302,45.3772091 6.40840302,44.7073249 5.99524433,44.2941662 Z" id="Path"></path>
                    <path d="M7.68370781,43.8882015 C8.1129471,43.7802922 8.43512343,43.4062065 8.47983879,42.9661058 C8.52370781,42.5351738 8.28673048,42.1128463 7.90206549,41.9184685 C7.49370277,41.7119597 6.98194458,41.7981461 6.66512846,42.1292091 C6.32588413,42.4836877 6.27693703,43.0356474 6.5449471,43.4459849 C6.53648363,43.4332897 6.52999496,43.4239798 6.54706297,43.4500756 C6.56483627,43.4761713 6.55877078,43.4667204 6.5503073,43.4541662 C6.79955668,43.816262 7.25446851,43.9961108 7.68370781,43.8882015 Z" id="Path"></path>
                    <path d="M10.4195264,41.3662267 L10.9824887,40.8031234 C11.3956474,40.3899647 11.3956474,39.7200806 10.9823476,39.307063 C10.5687657,38.8937632 9.89888161,38.8939043 9.48628715,39.307204 L8.92332494,39.8703073 C8.51016625,40.283466 8.51016625,40.9533501 8.92346599,41.3663678 C9.13011587,41.5728766 9.40080605,41.676131 9.67149622,41.676131 C9.9421864,41.676131 10.2130176,41.5728766 10.4195264,41.3662267 Z" id="Path"></path>
                </g>
            </g>
        </g>
    </g>
</svg>