<?xml version="1.0" encoding="UTF-8"?>
<svg width="115px" height="90px" viewBox="0 0 115 90" version="1.1" xmlns="http://www.w3.org/2000/svg" xmlns:xlink="http://www.w3.org/1999/xlink">
    <!-- Generator: Sketch 53.2 (72643) - https://sketchapp.com -->
    <title>principle-1</title>
    <desc>Created with Sketch.</desc>
    <defs>
        <polygon id="path-1" points="0.0065625 0.03653125 9.33329687 0.03653125 9.33329687 1.903125 0.0065625 1.903125"></polygon>
        <polygon id="path-3" points="0.0065625 0.094828125 56 0.094828125 56 45.8215625 0.0065625 45.8215625"></polygon>
    </defs>
    <g id="Page-1" stroke="none" stroke-width="1" fill="none" fill-rule="evenodd">
        <g id="Homepage" transform="translate(-125.000000, -3515.000000)">
            <g id="principle-1" transform="translate(126.000000, 3516.000000)">
                <g id="Group-18" opacity="0.5" fill="#0FDD8F" fill-rule="nonzero" stroke="#0F61DD" stroke-width="0.4">
                    <circle id="Oval" opacity="0.149999991" cx="34.527972" cy="34.527972" r="34.527972"></circle>
                    <circle id="Oval-Copy-37" opacity="0.149999991" cx="78.527972" cy="53.527972" r="34.527972"></circle>
                </g>
                <g id="dashboard" transform="translate(29.000000, 22.000000)">
                    <g id="Group-3" transform="translate(0.000000, 27.125000)">
                        <mask id="mask-2" fill="white">
                            <use xlink:href="#path-1"></use>
                        </mask>
                        <g id="Clip-2"></g>
                        <path d="M8.4,1.903125 L0.933296875,1.903125 C0.373296875,1.903125 0,1.52982812 0,0.969828125 C0,0.409828125 0.373296875,0.03653125 0.933296875,0.03653125 L8.4,0.03653125 C8.96,0.03653125 9.33329688,0.409828125 9.33329688,0.969828125 C9.33329688,1.52982812 8.96,1.903125 8.4,1.903125" id="Fill-1" fill="#0FDD8F" mask="url(#mask-2)"></path>
                    </g>
                    <path d="M55.0667031,29.028125 L47.6,29.028125 C47.04,29.028125 46.6667031,28.6548281 46.6667031,28.0948281 C46.6667031,27.5348281 47.04,27.1615312 47.6,27.1615312 L55.0667031,27.1615312 C55.6267031,27.1615312 56,27.5348281 56,28.0948281 C56,28.6548281 55.6267031,29.028125 55.0667031,29.028125" id="Fill-4" fill="#0FDD8F"></path>
                    <path d="M28,9.428125 C27.44,9.428125 27.0667031,9.05482812 27.0667031,8.49482812 L27.0667031,1.028125 C27.0667031,0.468125 27.44,0.094828125 28,0.094828125 C28.56,0.094828125 28.9332969,0.468125 28.9332969,1.028125 L28.9332969,8.49482812 C28.9332969,9.05482812 28.56,9.428125 28,9.428125" id="Fill-5" fill="#0FDD8F"></path>
                    <path d="M34.6267031,21.468125 L33.4132969,22.2148281 C31.8267031,23.148125 30.0532969,23.988125 28.3732969,24.828125 C27.8132969,25.108125 27.2532969,25.2948281 26.7867031,25.5748281 C25.5732969,26.1348281 25.0132969,27.4415313 25.2932969,28.748125 C25.48,29.7748281 26.32,30.6148281 27.3467031,30.8015313 C28.6532969,31.0815312 29.96,30.5215313 30.52,29.308125 C30.8,28.748125 31.08,28.2815312 31.2667031,27.7215313 C32.0132969,26.0415312 32.8532969,24.3615313 33.88,22.6815312 L34.6267031,21.468125 Z M28,32.7615312 C27.6267031,32.7615312 27.2532969,32.7615312 26.88,32.668125 C25.2,32.2948281 23.8,30.8948281 23.4267031,29.2148281 C22.96,27.068125 23.9867031,24.9215312 25.9467031,23.8948281 C26.5067031,23.6148281 27.0667031,23.3348281 27.5332969,23.148125 C29.12,22.4015312 30.8,21.5615312 32.3867031,20.628125 L36.8667031,17.9215312 C37.24,17.7348281 37.7067031,17.7348281 37.9867031,18.108125 C38.2667031,18.4815312 38.36,18.8548281 38.1732969,19.228125 L35.4667031,23.708125 C34.5332969,25.2948281 33.7867031,26.9748281 32.9467031,28.5615312 C32.6667031,29.1215312 32.3867031,29.6815312 32.2,30.148125 C31.36,31.7348281 29.7732969,32.7615312 28,32.7615312 L28,32.7615312 Z" id="Fill-6" fill="#0FDD8F"></path>
                    <path d="M11.48,12.508125 C11.2,12.508125 11.0132969,12.4148281 10.8267031,12.228125 L8.21329688,9.61482812 C7.84,9.24153125 7.84,8.68153125 8.21329688,8.308125 C8.58670312,7.93482812 9.14670312,7.93482812 9.52,8.308125 L12.1332969,10.9215312 C12.5067031,11.2948281 12.5067031,11.8548281 12.1332969,12.228125 C11.9467031,12.4148281 11.76,12.508125 11.48,12.508125" id="Fill-7" fill="#0FDD8F"></path>
                    <path d="M44.52,12.508125 C44.24,12.508125 44.0532969,12.4148281 43.8667031,12.228125 C43.4932969,11.8548281 43.4932969,11.2948281 43.8667031,10.9215312 L46.48,8.308125 C46.8532969,7.93482812 47.4132969,7.93482812 47.7867031,8.308125 C48.16,8.68153125 48.16,9.24153125 47.7867031,9.61482812 L45.1732969,12.228125 C44.9867031,12.4148281 44.7067031,12.508125 44.52,12.508125" id="Fill-8" fill="#0FDD8F"></path>
                    <path d="M6.53329687,19.9748281 C6.44,19.9748281 6.25329688,19.9748281 6.16,19.8815313 L2.70670312,18.388125 C2.24,18.2015312 2.05329688,17.6415312 2.24,17.1748281 C2.42670312,16.708125 2.98670313,16.5215312 3.45329687,16.708125 L6.90670312,18.2015312 C7.37329687,18.388125 7.56,18.948125 7.37329687,19.4148281 C7.18670312,19.788125 6.90670312,19.9748281 6.53329687,19.9748281" id="Fill-9" fill="#0FDD8F"></path>
                    <path d="M52.92,39.5748281 C52.8267031,39.5748281 52.64,39.5748281 52.5467031,39.4815312 L49.0932969,37.988125 C48.6267031,37.8015313 48.44,37.2415313 48.6267031,36.7748281 C48.8132969,36.308125 49.3732969,36.1215313 49.84,36.308125 L53.2932969,37.8015313 C53.76,37.988125 53.9467031,38.548125 53.76,39.0148281 C53.6667031,39.2948281 53.2932969,39.5748281 52.92,39.5748281" id="Fill-10" fill="#0FDD8F"></path>
                    <path d="M37.0532969,7.56153125 C36.96,7.56153125 36.7732969,7.56153125 36.68,7.468125 C36.2132969,7.28153125 36.0267031,6.72153125 36.2132969,6.25482813 L37.7067031,2.80153125 C37.8932969,2.33482812 38.4532969,2.148125 38.92,2.33482812 C39.3867031,2.52153125 39.5732969,3.08153125 39.3867031,3.548125 L37.8932969,7.00153125 C37.8,7.28153125 37.4267031,7.56153125 37.0532969,7.56153125" id="Fill-11" fill="#0FDD8F"></path>
                    <path d="M19.2267031,7.37482813 C18.8532969,7.37482813 18.48,7.188125 18.3867031,6.81482813 L16.9867031,3.36153125 C16.8,2.89482812 16.9867031,2.33482812 17.4532969,2.148125 C17.92,1.96153125 18.48,2.148125 18.6667031,2.61482812 L20.0667031,6.068125 C20.2532969,6.53482813 20.0667031,7.09482813 19.6,7.28153125 C19.4132969,7.37482813 19.32,7.37482813 19.2267031,7.37482813" id="Fill-12" fill="#0FDD8F"></path>
                    <path d="M49.6532969,20.2548281 C49.28,20.2548281 48.9067031,20.068125 48.8132969,19.6948281 C48.6267031,19.228125 48.8132969,18.668125 49.28,18.4815312 L52.7332969,17.0815312 C53.2,16.8948281 53.76,17.0815312 53.9467031,17.548125 C54.1332969,18.0148281 53.9467031,18.5748281 53.48,18.7615313 L50.0267031,20.1615313 C49.84,20.1615313 49.7467031,20.2548281 49.6532969,20.2548281" id="Fill-13" fill="#0FDD8F"></path>
                    <g id="Group-17">
                        <mask id="mask-4" fill="white">
                            <use xlink:href="#path-3"></use>
                        </mask>
                        <g id="Clip-15"></g>
                        <path d="M2.89329687,39.2015313 C2.52,39.2015313 2.14670312,39.0148281 2.05329688,38.6415312 C1.86670312,38.1748281 2.05329688,37.6148281 2.52,37.428125 L5.97329687,36.028125 C6.44,35.8415312 7,36.028125 7.18670313,36.4948281 C7.37329687,36.9615313 7.18670313,37.5215313 6.72,37.708125 L3.26670313,39.108125 C3.17329688,39.2015313 3.08,39.2015313 2.89329687,39.2015313" id="Fill-14" fill="#0FDD8F" mask="url(#mask-4)"></path>
                        <path d="M7.28,43.9615313 L48.8132969,43.9615313 C52.2667031,39.388125 54.1332969,33.8815313 54.1332969,28.0948281 C54.1332969,13.7215313 42.3732969,1.96153125 28,1.96153125 C13.6267031,1.96153125 1.86670313,13.7215313 1.86670313,28.0948281 C1.86670313,33.8815313 3.73329688,39.388125 7.28,43.9615313 Z M49.1867031,45.828125 L6.81329687,45.828125 C6.53329688,45.828125 6.25329688,45.7348281 6.06670313,45.4548281 C2.05329688,40.508125 0,34.4415312 0,28.0948281 C0,12.6948281 12.6,0.094828125 28,0.094828125 C43.4,0.094828125 56,12.6948281 56,28.0948281 C56,34.4415312 53.9467031,40.508125 49.9332969,45.4548281 C49.7467031,45.7348281 49.4667031,45.828125 49.1867031,45.828125 L49.1867031,45.828125 Z" id="Fill-16" fill="#0FDD8F" mask="url(#mask-4)"></path>
                    </g>
                </g>
            </g>
        </g>
    </g>
</svg>